<?xml version="1.0" encoding="UTF-8"?>
<svg width="13px" height="12px" viewBox="0 0 13 12" version="1.1" xmlns="http://www.w3.org/2000/svg" xmlns:xlink="http://www.w3.org/1999/xlink">
    <!-- Generator: Sketch 52.4 (67378) - http://www.bohemiancoding.com/sketch -->
    <title>Icon_Customer</title>
    <desc>Created with Sketch.</desc>
    <g id="Page-1" stroke="none" stroke-width="1" fill="none" fill-rule="evenodd">
        <g id="Legend" transform="translate(-1101.000000, -121.000000)" fill="#000000" fill-rule="nonzero">
            <path d="M1112.79019,122.566396 L1101.83535,122.566396 L1101.83535,121.523036 C1101.82667,121.38287 1101.87825,121.245665 1101.97712,121.145933 C1102.07599,121.046201 1102.21274,120.993434 1102.35298,121.000905 L1112.27257,121.000905 C1112.41341,120.992361 1112.55115,121.044654 1112.65084,121.144515 C1112.75053,121.244376 1112.80258,121.382207 1112.79379,121.523036 L1112.79019,122.566396 Z M1102.09597,126.739838 C1102.6745,126.72397 1103.14751,126.273539 1103.19163,125.696477 C1103.21853,125.603533 1103.30364,125.539566 1103.4004,125.539566 C1103.49715,125.539566 1103.58226,125.603533 1103.60916,125.696477 C1103.65244,126.273587 1104.1254,126.724341 1104.70392,126.739838 C1105.28262,126.724383 1105.75586,126.27373 1105.79958,125.696477 C1105.82648,125.603533 1105.91159,125.539566 1106.00835,125.539566 C1106.1051,125.539566 1106.19021,125.603533 1106.21711,125.696477 C1106.24096,126.284313 1106.72445,126.74858 1107.31277,126.74858 C1107.90109,126.74858 1108.38458,126.284313 1108.40843,125.696477 C1108.43533,125.603533 1108.52044,125.539566 1108.6172,125.539566 C1108.71396,125.539566 1108.79906,125.603533 1108.82596,125.696477 C1108.85498,126.280208 1109.33672,126.738593 1109.92117,126.738593 C1110.50562,126.738593 1110.98736,126.280208 1111.01638,125.696477 C1111.04328,125.603533 1111.12839,125.539566 1111.22515,125.539566 C1111.32191,125.539566 1111.40701,125.603533 1111.43391,125.696477 C1111.47803,126.273539 1111.95104,126.72397 1112.52957,126.739838 C1112.82225,126.746827 1113.10501,126.633637 1113.31203,126.426626 C1113.51904,126.219614 1113.63223,125.936849 1113.62524,125.644174 C1113.61701,125.486676 1113.59954,125.329798 1113.57293,125.174346 L1112.27257,123.087625 L1102.35298,123.087625 L1101.05261,125.174346 C1101.026,125.329798 1101.00854,125.486676 1101.00031,125.644174 C1100.99332,125.936849 1101.10651,126.219614 1101.31352,126.426626 C1101.52053,126.633637 1101.80329,126.746827 1102.09597,126.739838 Z M1113.31232,132.477869 L1113.31232,133 L1101.31322,133 L1101.31322,132.477869 C1101.30498,132.337104 1101.35736,132.19954 1101.45716,132.09992 C1101.55695,132.0003 1101.6946,131.948149 1101.83535,131.95664 L1101.83535,127.261067 L1112.79019,127.261067 L1112.79019,131.95664 C1112.93094,131.948149 1113.06859,132.0003 1113.16839,132.09992 C1113.26818,132.19954 1113.32057,132.337104 1113.31232,132.477869 Z M1105.48667,128.305329 L1103.39994,128.305329 L1103.39994,131.957541 L1105.48667,131.957541 L1105.48667,128.305329 Z M1111.2256,128.82746 L1107.05216,128.82746 L1107.05216,130.914181 L1111.2256,130.914181 L1111.2256,128.82746 Z" id="Icon_Customer"></path>
        </g>
    </g>
</svg>