<?xml version="1.0" encoding="UTF-8"?>
<svg width="16px" height="9px" viewBox="0 0 16 9" version="1.1" xmlns="http://www.w3.org/2000/svg" xmlns:xlink="http://www.w3.org/1999/xlink">
    <!-- Generator: Sketch 52.4 (67378) - http://www.bohemiancoding.com/sketch -->
    <title>icon_DC</title>
    <desc>Created with Sketch.</desc>
    <g id="Page-1" stroke="none" stroke-width="1" fill="none" fill-rule="evenodd">
        <g id="Legend" transform="translate(-1100.000000, -51.000000)" fill="#000000" fill-rule="nonzero">
            <g id="icon_DC" transform="translate(1100.000000, 51.000000)">
                <g id="dc">
                    <path d="M15.1132632,7.61178947 L15.1132632,0.388210526 L10.6947368,0.388210526 L10.6947368,1.296 L1.21852632,1.296 L1.21852632,7.61178947 C0.870098946,7.61271492 0.587872811,7.89494105 0.586947368,8.24336842 L0.586947368,8.87494737 L15.7448421,8.87494737 L15.7448421,8.24336842 C15.7550183,8.07294684 15.6917519,7.90632147 15.571031,7.78560057 C15.4503101,7.66487968 15.2836847,7.60161324 15.1132632,7.61178947 Z M8.16589474,2.55915789 L9.42905263,2.55915789 L9.42905263,3.82231579 L8.16842105,3.82231579 L8.16589474,2.55915789 Z M3.74484211,3.82231579 L2.48168421,3.82231579 L2.48168421,2.55915789 L3.74484211,2.55915789 L3.74484211,3.82231579 Z M5.63957895,3.82231579 L4.37894737,3.82231579 L4.37894737,2.55915789 L5.64210526,2.55915789 L5.63957895,3.82231579 Z M6.27115789,2.55915789 L7.53431579,2.55915789 L7.53431579,3.82231579 L6.27115789,3.82231579 L6.27115789,2.55915789 Z M7.14610526,8.48 L2.86989474,8.48 L2.86989474,7.53684211 L7.14610526,7.53684211 L7.14610526,8.48 Z M7.14610526,7.25389474 L2.86989474,7.25389474 L2.86989474,6.31073684 L7.14610526,6.31073684 L7.14610526,7.25389474 Z M7.14610526,6.02863158 L2.86989474,6.02863158 L2.86989474,5.08547368 L7.14610526,5.08547368 L7.14610526,6.02863158 Z M13.2993684,8.48 L9.33136842,8.48 L9.33136842,7.53684211 L13.2993684,7.53684211 L13.2993684,8.48 Z M13.2993684,7.25389474 L9.33136842,7.25389474 L9.33136842,6.31073684 L13.2993684,6.31073684 L13.2993684,7.25389474 Z M13.2993684,6.02863158 L9.33136842,6.02863158 L9.33136842,5.08547368 L13.2993684,5.08547368 L13.2993684,6.02863158 Z M11.3153684,0.96 L12.5616842,0.96 L12.5616842,2.20631579 L11.3153684,2.20631579 L11.3153684,0.96 Z M14.4311579,2.20631579 L13.1848421,2.20631579 L13.1848421,0.96 L14.4311579,0.96 L14.4311579,2.20631579 Z" id="Shape"></path>
                </g>
            </g>
        </g>
    </g>
</svg>