<?xml version="1.0" encoding="UTF-8"?>
<svg width="13px" height="12px" viewBox="0 0 13 12" version="1.1" xmlns="http://www.w3.org/2000/svg" xmlns:xlink="http://www.w3.org/1999/xlink">
    <!-- Generator: Sketch 52.4 (67378) - http://www.bohemiancoding.com/sketch -->
    <title>Icon_Factory</title>
    <desc>Created with Sketch.</desc>
    <g id="Page-1" stroke="none" stroke-width="1" fill="none" fill-rule="evenodd">
        <g id="Legend" transform="translate(-1101.000000, -145.000000)" fill="#000000" fill-rule="nonzero">
            <path d="M1106.73913,150.217391 L1104.65217,150.217391 L1104.65217,145 L1106.73913,145 L1106.73913,150.217391 Z M1104.13043,147.608696 L1102.56522,147.608696 L1102.56522,150.217391 L1104.13043,150.217391 L1104.13043,147.608696 Z M1113.52174,156.478261 L1113.52174,157 L1101,157 L1101,156.478261 C1101.00076,156.19043 1101.23391,155.957286 1101.52174,155.956522 L1101.52174,150.73913 L1109.34783,150.73913 L1109.34783,152.304348 L1113,152.304348 L1113,155.956522 C1113.14078,155.948115 1113.27843,156.000379 1113.37816,156.100105 C1113.47788,156.199831 1113.53015,156.337478 1113.52174,156.478261 Z M1103.6087,151.782609 L1102.56522,151.782609 L1102.56522,152.826087 L1103.6087,152.826087 L1103.6087,151.782609 Z M1105.17391,151.782609 L1104.13043,151.782609 L1104.13043,152.826087 L1105.17391,152.826087 L1105.17391,151.782609 Z M1106.73913,151.782609 L1105.69565,151.782609 L1105.69565,152.826087 L1106.73913,152.826087 L1106.73913,151.782609 Z M1108.30435,151.782609 L1107.26087,151.782609 L1107.26087,152.826087 L1108.30435,152.826087 L1108.30435,151.782609 Z M1110.3913,152.826087 L1109.86957,152.826087 L1109.86957,153.347826 L1110.3913,153.347826 L1110.3913,152.826087 Z M1111.43478,152.826087 L1110.91304,152.826087 L1110.91304,153.347826 L1111.43478,153.347826 L1111.43478,152.826087 Z M1112.47826,152.826087 L1111.95652,152.826087 L1111.95652,153.347826 L1112.47826,153.347826 L1112.47826,152.826087 Z" id="Icon_Factory"></path>
        </g>
    </g>
</svg>