<?xml version="1.0" encoding="UTF-8"?>
<svg width="12px" height="12px" viewBox="0 0 12 12" version="1.1" xmlns="http://www.w3.org/2000/svg" xmlns:xlink="http://www.w3.org/1999/xlink">
    <!-- Generator: Sketch 52.4 (67378) - http://www.bohemiancoding.com/sketch -->
    <title>Icon_Port</title>
    <desc>Created with Sketch.</desc>
    <g id="Page-1" stroke="none" stroke-width="1" fill="none" fill-rule="evenodd">
        <g id="Legend" transform="translate(-1102.000000, -97.000000)" fill="#000000">
            <path d="M1113.96022,105.529239 C1114.07752,105.878301 1113.92651,106.015633 1113.62407,105.834435 C1113.32135,105.652971 1113.0739,105.504972 1113.0739,105.504972 C1112.90409,105.9655 1112.59778,106.529227 1112.30543,106.91749 C1111.9824,107.346285 1111.52217,107.723614 1111.0777,108.035344 C1110.63833,108.344407 1110.14716,108.588405 1109.6184,108.754003 C1109.10871,108.913868 1108.56531,109 1108.00022,109 C1107.43527,109 1106.89131,108.913868 1106.38162,108.754136 C1105.8537,108.588271 1105.36225,108.344274 1104.92261,108.035477 C1104.47855,107.723748 1104.01832,107.346418 1103.69488,106.917623 C1103.40197,106.529361 1103.09635,105.965634 1102.92682,105.505105 C1102.92682,105.505105 1102.67923,105.653504 1102.37651,105.834569 C1102.07366,106.015633 1101.92223,105.878301 1102.03994,105.529239 L1102.42376,104.389385 L1102.76489,103.376329 C1102.90623,102.957534 1103.25165,102.898601 1103.53281,103.245797 L1104.21244,104.084721 L1104.97718,105.028977 C1105.21137,105.318441 1105.1235,105.498706 1104.78182,105.429906 C1104.44014,105.361107 1104.16063,105.304841 1104.16063,105.304841 L1104.16008,105.305108 C1104.46763,106.083366 1105.16992,106.739892 1105.89031,107.178154 C1106.53664,107.571349 1107.18408,107.082155 1107.20826,106.345629 L1107.32639,101.146221 L1105.34719,101.146221 C1105.10954,101.146221 1104.91528,100.943156 1104.91528,100.694892 L1104.91528,100.658226 C1104.91528,100.409829 1105.10954,100.206764 1105.34719,100.206764 L1107.34781,100.206764 L1107.36162,99.5998378 L1107.36301,99.5998378 C1106.89739,99.3742403 1106.57713,98.9103788 1106.57713,98.3731847 C1106.57713,97.6146598 1107.2142,97 1108.00008,97 C1108.78624,97 1109.42304,97.6146598 1109.42318,98.3733181 C1109.42318,98.9167787 1109.09573,99.3849068 1108.62099,99.607571 L1108.63578,100.206898 L1110.6527,100.206898 C1110.89034,100.206898 1111.0846,100.410095 1111.0846,100.658359 L1111.0846,100.695026 C1111.0846,100.943423 1110.89034,101.146354 1110.6527,101.146354 L1108.65926,101.146354 L1108.789,106.345763 C1108.8147,107.082288 1109.46352,107.571483 1110.10999,107.178287 C1110.83011,106.739758 1111.53253,106.083232 1111.84009,105.304708 L1111.83926,105.304974 C1111.83926,105.304974 1111.55989,105.361107 1111.21793,105.43004 C1110.87625,105.498706 1110.78866,105.318574 1111.02271,105.029244 L1111.78745,104.084988 L1112.46722,103.246064 C1112.74866,102.898868 1113.09407,102.957667 1113.23513,103.376596 L1113.57626,104.389385 L1113.96022,105.529239 Z M1107.99994,99.0001111 C1108.38147,99.0001111 1108.69077,98.7016376 1108.69077,98.3334519 C1108.69077,97.9652661 1108.38147,97.6667926 1107.99994,97.6667926 C1107.61841,97.6667926 1107.30912,97.9652661 1107.30912,98.3334519 C1107.30912,98.7016376 1107.61841,99.0001111 1107.99994,99.0001111 Z" id="Icon_Port"></path>
        </g>
    </g>
</svg>