<?xml version="1.0" encoding="UTF-8"?>
<svg width="11px" height="12px" viewBox="0 0 11 12" version="1.1" xmlns="http://www.w3.org/2000/svg" xmlns:xlink="http://www.w3.org/1999/xlink">
    <!-- Generator: Sketch 52.4 (67378) - http://www.bohemiancoding.com/sketch -->
    <title>icon_warehouse</title>
    <desc>Created with Sketch.</desc>
    <g id="Page-1" stroke="none" stroke-width="1" fill="none" fill-rule="evenodd">
        <g id="Legend" transform="translate(-1102.000000, -73.000000)" fill="#000000">
            <g id="icon_warehouse" transform="translate(1102.000000, 73.000000)">
                <g id="supplier">
                    <path d="M5.55,10.01475 C5.50031981,9.87521063 5.36886197,9.78148328 5.22075,9.78 L3.33825,9.78 C3.18993321,9.78138912 3.05820833,9.87509341 3.00825,10.01475 L2.49075,11.47425 C2.4435,11.61525 2.49075,11.70975 2.63175,11.70975 L5.925,11.70975 C6.06675,11.70975 6.11325,11.61525 6.06675,11.47425 L5.55,10.01475 Z" id="Path"></path>
                    <path d="M9.78375,10.01475 C9.73379167,9.87509341 9.60206679,9.78138912 9.45375,9.78 L7.575,9.78 C7.42688803,9.78148328 7.29543019,9.87521063 7.24575,10.01475 L6.72375,11.475 C6.67725,11.616 6.72375,11.7105 6.8655,11.7105 L10.16025,11.7105 C10.30125,11.7105 10.3485,11.616 10.30125,11.475 L9.78375,10.01475 Z" id="Path"></path>
                    <path d="M4.8885,7.66125 L4.37025,9.12075 C4.32375,9.26175 4.37025,9.35625 4.512,9.35625 L7.80675,9.35625 C7.94775,9.35625 7.995,9.26175 7.94775,9.12075 L7.43025,7.66125 C7.38029167,7.52159341 7.24856679,7.42788912 7.10025,7.4265 L5.21775,7.4265 C5.06963803,7.42798328 4.93818019,7.52171063 4.8885,7.66125 Z" id="Path"></path>
                    <path d="M8.9835,3.66075 C8.99005078,3.28501777 8.84383435,2.92271384 8.57832332,2.65677867 C8.31281229,2.3908435 7.95074221,2.24404896 7.575,2.25 C7.56844922,2.62573223 7.71466565,2.98803616 7.98017668,3.25397133 C8.24568771,3.5199065 8.60775779,3.66670104 8.9835,3.66075 Z" id="Path"></path>
                    <path d="M9.219,2.67225 C9.59351153,2.42891625 9.81947917,2.01262087 9.81947917,1.566 C9.81947917,1.11937913 9.59351153,0.703083749 9.219,0.45975 C8.84448847,0.703083749 8.61852083,1.11937913 8.61852083,1.566 C8.61852083,2.01262087 8.84448847,2.42891625 9.219,2.67225 Z" id="Path"></path>
                    <path d="M8.9835,5.073 C8.99046228,4.69700999 8.84442768,4.33431377 8.57887077,4.06804983 C8.31331385,3.80178589 7.95100719,3.65478745 7.575,3.66075 C7.56803772,4.03674001 7.71407232,4.39943623 7.97962923,4.66570017 C8.24518615,4.93196411 8.60749281,5.07896255 8.9835,5.073 Z" id="Path"></path>
                    <path d="M10.866,2.25 C10.489348,2.24300792 10.1260598,2.38955173 9.85968079,2.65593079 C9.59330173,2.92230984 9.44675792,3.28559802 9.45375,3.66225 C9.83040198,3.66924208 10.1936902,3.52269827 10.4600692,3.25631921 C10.7264483,2.98994016 10.8729921,2.62665198 10.866,2.25 Z" id="Path"></path>
                    <path d="M8.9835,6.4845 L8.9835,8.085 C8.97857478,8.17217091 9.02228107,8.25491276 9.09705905,8.29998246 C9.17183704,8.34505217 9.26541296,8.34505217 9.34019095,8.29998246 C9.41496893,8.25491276 9.45867522,8.17217091 9.45375,8.085 L9.45375,6.4845 C9.36,6.4845 9.2655,6.53175 9.17175,6.53175 C9.1245,6.53175 9.03075,6.4845 8.9835,6.4845 Z" id="Path"></path>
                    <path d="M8.9835,6.4845 C8.99025646,6.10863886 8.84413091,5.74613882 8.57859694,5.48003929 C8.31306298,5.21393976 7.95087466,5.06704326 7.575,5.073 C7.56824354,5.44886114 7.71436909,5.81136118 7.97990306,6.07746071 C8.24543702,6.34356024 8.60762534,6.49045674 8.9835,6.4845 Z" id="Path"></path>
                    <path d="M9.45375,6.4845 C9.83026944,6.4914859 10.193439,6.3450439 10.459795,6.07882937 C10.726151,5.81261484 10.8727859,5.4495231 10.866,5.073 C10.4894806,5.0660141 10.126311,5.2124561 9.85995499,5.47867063 C9.59359901,5.74488516 9.44696412,6.1079769 9.45375,6.4845 Z" id="Path"></path>
                    <path d="M9.45375,5.073 C9.83040198,5.07999208 10.1936902,4.93344827 10.4600692,4.66706921 C10.7264483,4.40069016 10.8729921,4.03740198 10.866,3.66075 C10.489348,3.65375792 10.1260598,3.80030173 9.85968079,4.06668079 C9.59330173,4.33305984 9.44675792,4.69634802 9.45375,5.073 Z" id="Path"></path>
                    <path d="M5.21775,6.72 C5.22078173,6.65666067 5.19694527,6.59498262 5.15210633,6.55014367 C5.10726738,6.50530473 5.04558933,6.48146827 4.98225,6.4845 L4.74675,6.4845 L4.74675,5.073 L4.98225,5.073 C5.11231306,5.073 5.21775,4.96756306 5.21775,4.8375 C5.21775,4.70743694 5.11231306,4.602 4.98225,4.602 L4.74675,4.602 L4.74675,3.18975 L4.98225,3.18975 C5.11231306,3.18975 5.21775,3.08431306 5.21775,2.95425 C5.21775,2.82418694 5.11231306,2.71875 4.98225,2.71875 L4.74675,2.71875 L4.74675,1.30725 L4.98225,1.30725 C5.11231306,1.30725 5.21775,1.20181306 5.21775,1.07175 C5.21775,0.941686941 5.11231306,0.83625 4.98225,0.83625 L0.27525,0.83625 C0.145186941,0.83625 0.03975,0.941686941 0.03975,1.07175 C0.03975,1.20181306 0.145186941,1.30725 0.27525,1.30725 L0.51075,1.30725 L0.51075,2.71875 L0.27525,2.71875 C0.145186941,2.71875 0.03975,2.82418694 0.03975,2.95425 C0.03975,3.08431306 0.145186941,3.18975 0.27525,3.18975 L0.51075,3.18975 L0.51075,4.602 L0.27525,4.602 C0.145186941,4.602 0.03975,4.70743694 0.03975,4.8375 C0.03975,4.96756306 0.145186941,5.073 0.27525,5.073 L0.51075,5.073 L0.51075,6.4845 L0.27525,6.4845 C0.145186941,6.4845 0.03975,6.58993694 0.03975,6.72 C0.03975,6.85006306 0.145186941,6.9555 0.27525,6.9555 L4.98225,6.9555 C5.04558933,6.95853173 5.10726738,6.93469527 5.15210633,6.88985633 C5.19694527,6.84501738 5.22078173,6.78333933 5.21775,6.72 Z" id="Path"></path>
                </g>
            </g>
        </g>
    </g>
</svg>