<svg xmlns="http://www.w3.org/2000/svg" viewBox="0 0 32 32"><defs><style>.cls-1{fill:#fafafa;}</style></defs><title>Asset 2</title><g id="Layer_2" data-name="Layer 2"><g id="Layer_1-2" data-name="Layer 1"><path class="cls-1" d="M17.185,19.749,22.963,32l2.143-2.143a1.9,1.9,0,0,0,.549-1.492L22.992,13.958a.888.888,0,0,1,.273-.713l7.46-7.711s2.453-2.914.554-4.813-4.813.554-4.813.554l-7.711,7.46a.886.886,0,0,1-.713.273L3.635,6.346a1.893,1.893,0,0,0-1.492.548L0,9.037l12.251,5.778a.27.27,0,0,1,.126.434L5.957,21.9,0,20.812l.244,1.877a1.959,1.959,0,0,0,.671.671l4.84,2.885,2.885,4.84a1.959,1.959,0,0,0,.671.671L11.188,32,10.1,26.043l6.651-6.42A.27.27,0,0,1,17.185,19.749Z"/></g></g></svg>