<svg xmlns="http://www.w3.org/2000/svg" viewBox="0 0 24.615 32"><defs><style>.cls-1{opacity:0.3;}.cls-2{fill:#fafafa;}</style></defs><title>Asset 4</title><g id="Layer_2" data-name="Layer 2"><g id="Layer_1-2" data-name="Layer 1"><g id="train"><g class="cls-1"><path class="cls-2" d="M12.308,16.385c-4.923,0-9.846-2.847-9.846-2.847l1.9-10.73a.551.551,0,0,1,.405-.346H19.9a.55.55,0,0,1,.405.347l1.846,10.729S17.231,16.385,12.308,16.385Z"/></g><path class="cls-2" d="M8.192,25.846,4.923,32H0l5.5-6.154Zm8.144,0L19.692,32h4.923l-5.578-6.154Zm8.279-11.077v3.693c0,2.461-1.23,6.153-4.923,6.153H4.923C1.231,24.615,0,22.154,0,18.462V14.769C0,12.308,2.087,2.421,2.087,2.421A2.96,2.96,0,0,1,4.925,0H19.69a2.959,2.959,0,0,1,2.838,2.421S24.615,12.308,24.615,14.769ZM7.385,18.462,2.462,16v3.692l4.923,1.231ZM22.154,16l-4.923,2.462v2.461l4.923-1.231Zm0-2.462L20.308,2.809a.55.55,0,0,0-.405-.347H4.769a.551.551,0,0,0-.405.346l-1.9,10.73s4.923,2.847,9.846,2.847S22.154,13.538,22.154,13.538Z"/></g></g></g></svg>