<svg xmlns="http://www.w3.org/2000/svg" viewBox="0 0 32 18.461"><defs><style>.cls-1{fill:#fafafa;}</style></defs><title>Asset 3</title><g id="Layer_2" data-name="Layer 2"><g id="Layer_1-2" data-name="Layer 1"><path class="cls-1" d="M30.744,0H11.752A1.259,1.259,0,0,0,10.5,1.256v9.435H9.673V4.042h-4.3A2.514,2.514,0,0,0,3.353,5.064L0,9.605V13A2.779,2.779,0,0,0,.814,14.96l.425.425H3.723a3.077,3.077,0,0,0,6.154,0h1.662v-.044a1.15,1.15,0,0,0,.213.044H21.34a3.077,3.077,0,0,0,6.154,0h3.25A1.26,1.26,0,0,0,32,14.129V1.256A1.259,1.259,0,0,0,30.744,0ZM1.934,9.713,4.628,5.78H8.105V9.713Z"/></g></g></svg>