<svg xmlns="http://www.w3.org/2000/svg" viewBox="0 0 32 32.032"><defs><style>.cls-1{fill:#fafafa;}</style></defs><title>Asset 1</title><g id="Layer_2" data-name="Layer 2"><g id="Layer_1-2" data-name="Layer 1"><path class="cls-1" d="M32,21.431a.624.624,0,0,0-.689-.7q-3.035-.008-6.07,0a.626.626,0,0,0-.626.395.572.572,0,0,0,.171.683q.756.762,1.509,1.524c.074.075.142.156.233.257C24.38,26.212,21.5,27.3,18.3,27.819V16.11c1.162,0,2.3,0,3.445,0a1.036,1.036,0,0,0,1.087-1.066q.006-1.187,0-2.375a1.074,1.074,0,0,0-1.1-1.111c-.7-.006-1.407,0-2.111,0H18.275c0-.9.01-1.747,0-2.593a.571.571,0,0,1,.292-.554,4.6,4.6,0,0,0,1.57-5.783A4.533,4.533,0,0,0,14.657.216,4.361,4.361,0,0,0,11.5,3.847a4.44,4.44,0,0,0,1.986,4.6.473.473,0,0,1,.243.448c-.015.725-.006,1.451-.006,2.177v.487c-1.186,0-2.318,0-3.451,0a1.074,1.074,0,0,0-1.1,1.106c0,.8-.005,1.605,0,2.408a1.031,1.031,0,0,0,1.049,1.038l3.133,0h.35V27.823c-3.215-.532-6.1-1.615-8.269-4.287l1.73-1.678a.609.609,0,0,0,.224-.729.661.661,0,0,0-.69-.4c-.857,0-1.715,0-2.573,0-1.132,0-2.265,0-3.4,0-.455,0-.724.225-.725.629C0,23.471-.006,25.582.017,27.692a.669.669,0,0,0,.332.5.962.962,0,0,0,.605-.084c.113-.039.191-.175.286-.268l1.428-1.4c.049.064.087.118.129.167A13.2,13.2,0,0,0,6.78,29.756a19.69,19.69,0,0,0,15,1.415,15,15,0,0,0,7.508-4.661.251.251,0,0,1,.076-.043c.53.522,1.056,1.035,1.577,1.554a.632.632,0,0,0,.716.191A.57.57,0,0,0,32,27.6C32,25.543,32,23.487,32,21.431ZM16,5.6a1,1,0,1,1,1-1A1,1,0,0,1,16,5.6Z"/></g></g></svg>