<?xml version="1.0" encoding="UTF-8"?>
<svg width="17px" height="14px" viewBox="0 0 17 14" version="1.1" xmlns="http://www.w3.org/2000/svg" xmlns:xlink="http://www.w3.org/1999/xlink">
    <!-- Generator: Sketch 52.2 (67145) - http://www.bohemiancoding.com/sketch -->
    <title>Shape</title>
    <desc>Created with Sketch.</desc>
    <g id="Page-1" stroke="none" stroke-width="1" fill="none" fill-rule="evenodd" opacity="0.5">
        <g id="Past" transform="translate(-139.000000, -621.000000)" fill="#FFFFFF" fill-rule="nonzero">
            <path d="M148.333333,621 C144.467778,621 141.333333,624.134444 141.333333,628 L139,628 L142.025556,631.025556 L142.08,631.134444 L145.222222,628 L142.888889,628 C142.888889,624.99 145.323333,622.555556 148.333333,622.555556 C151.343333,622.555556 153.777778,624.99 153.777778,628 C153.777778,631.01 151.343333,633.444444 148.333333,633.444444 C146.832222,633.444444 145.471111,632.83 144.491111,631.842222 L143.386667,632.946667 C144.654444,634.214444 146.396667,635 148.333333,635 C152.198889,635 155.333333,631.865556 155.333333,628 C155.333333,624.134444 152.198889,621 148.333333,621 Z M147.555556,624.888889 L147.555556,628.777778 L150.861111,630.737778 L151.46,629.742222 L148.722222,628.116667 L148.722222,624.888889 L147.555556,624.888889 Z" id="Shape"></path>
        </g>
    </g>
</svg>