<?xml version="1.0" encoding="UTF-8"?>
<svg width="17px" height="21px" viewBox="0 0 17 21" version="1.1" xmlns="http://www.w3.org/2000/svg" xmlns:xlink="http://www.w3.org/1999/xlink">
    <!-- Generator: Sketch 51.3 (57544) - http://www.bohemiancoding.com/sketch -->
    <title>Rectangle</title>
    <desc>Created with Sketch.</desc>
    <defs></defs>
    <g id="Symbols" stroke="none" stroke-width="1" fill="none" fill-rule="evenodd">
        <g id="icon-system/hot" transform="translate(-3.000000, -1.000000)" fill="#F24343">
            <path d="M9.05744485,11.9981618 C6.86073525,7.65945401 7.76601257,3.91844732 11.2338589,1.75779754 C11.8339891,5.9923953 11.7881434,7.34122243 14.5085195,9.95558361 C15.3818679,9.88900295 15.7204189,8.49795686 14.5937518,6.40013119 C16.043049,6.69555498 17.7618824,8.09131675 18.90625,10.0057445 C19.8782141,11.631756 20.1847383,13.5975802 19.7532185,15.8328486 C19.4622739,17.3399391 19.0457967,18.0517418 17.9059176,19.3672034 C16.3903167,21.1162614 14.2962181,21.1883945 12.9782948,20.9812956 C14.5330706,19.7060087 15.1586135,16.3468748 12.5883062,14.4996854 C12.4751205,15.7565214 12.1850624,18.8782933 10.1284747,20.4834429 C9.42333063,21.2855577 6.95330557,21.1515713 5.76282234,20.4020199 C3.40057005,18.5312605 2.68910365,12.4553966 7.01108964,9.64301951 C7.49732948,9.55535845 6.40316776,12.9911345 7.37794567,13.6980045 C8.58758852,14.3311425 9.43290441,12.8685662 9.05744485,11.9981618 Z" id="Rectangle"></path>
        </g>
    </g>
</svg>