<?xml version="1.0" encoding="UTF-8"?>
<svg width="18px" height="16px" viewBox="0 0 18 16" version="1.1" xmlns="http://www.w3.org/2000/svg" xmlns:xlink="http://www.w3.org/1999/xlink">
    <!-- Generator: Sketch 52.6 (67491) - http://www.bohemiancoding.com/sketch -->
    <title>icon_linked_node</title>
    <desc>Created with Sketch.</desc>
    <g id="Page-1" stroke="none" stroke-width="1" fill="none" fill-rule="evenodd">
        <g id="Navigation-between-Nodes-Ite101" transform="translate(-1197.000000, -191.000000)" fill="#000000">
            <g id="icon_linked_node" transform="translate(1197.000000, 191.000000)">
                <rect id="Rectangle" x="8.61538462" y="4.30769231" width="1" height="7.38461538"></rect>
                <polygon id="Path" points="16 11.6923077 15.3846154 11.6923077 15.3846154 8.30769231 2.46153846 8.30769231 2.46153846 11.6923077 1.84615385 11.6923077 1.84615385 7.69230769 16 7.69230769"></polygon>
                <path d="M2.15384615,16 C0.964307692,16 0,15.0356923 0,13.8461538 C0,12.6566154 0.964307692,11.6923077 2.15384615,11.6923077 C3.34338462,11.6923077 4.30769231,12.6566154 4.30769231,13.8461538 C4.30769231,15.0356923 3.34338462,16 2.15384615,16 Z" id="Path"></path>
                <path d="M15.6923077,16 C14.5027692,16 13.5384615,15.0356923 13.5384615,13.8461538 C13.5384615,12.6566154 14.5027692,11.6923077 15.6923077,11.6923077 C16.8818462,11.6923077 17.8461538,12.6566154 17.8461538,13.8461538 C17.8461538,15.0356923 16.8818462,16 15.6923077,16 Z" id="Path"></path>
                <path d="M8.92307692,16 C7.73353846,16 6.76923077,15.0356923 6.76923077,13.8461538 C6.76923077,12.6566154 7.73353846,11.6923077 8.92307692,11.6923077 C10.1126154,11.6923077 11.0769231,12.6566154 11.0769231,13.8461538 C11.0769231,15.0356923 10.1126154,16 8.92307692,16 Z" id="Path"></path>
                <path d="M8.92307692,4.30769231 C7.73353846,4.30769231 6.76923077,3.34338462 6.76923077,2.15384615 C6.76923077,0.964307692 7.73353846,0 8.92307692,0 C10.1126154,0 11.0769231,0.964307692 11.0769231,2.15384615 C11.0769231,3.34338462 10.1126154,4.30769231 8.92307692,4.30769231 Z" id="Path"></path>
            </g>
        </g>
    </g>
</svg>