<svg xmlns="http://www.w3.org/2000/svg" viewBox="0 0 18 17.25"><defs><style>.cls-1{fill:#1f3138;}</style></defs><title>Asset 5</title><g id="Layer_2" data-name="Layer 2"><g id="Layer_1-2" data-name="Layer 1"><g id="factory"><path class="cls-1" d="M8.25,7.5h-3V0h3ZM4.5,3.75H2.25V7.5H4.5ZM18,16.5v.75H0V16.5a.752.752,0,0,1,.75-.75V8.25H12V10.5h5.25v5.25A.709.709,0,0,1,18,16.5ZM3.75,9.75H2.25v1.5h1.5ZM6,9.75H4.5v1.5H6Zm2.25,0H6.75v1.5h1.5Zm2.25,0H9v1.5h1.5Zm3,1.5h-.75V12h.75Zm1.5,0h-.75V12H15Zm1.5,0h-.75V12h.75Z"/></g></g></g></svg>