<?xml version="1.0" encoding="UTF-8"?>
<svg width="20px" height="20px" viewBox="0 0 20 20" version="1.1" xmlns="http://www.w3.org/2000/svg" xmlns:xlink="http://www.w3.org/1999/xlink">
    <!-- Generator: Sketch 52.5 (67469) - http://www.bohemiancoding.com/sketch -->
    <title>Information</title>
    <desc>Created with Sketch.</desc>
    <g id="PPT" stroke="none" stroke-width="1" fill="none" fill-rule="evenodd" fill-opacity="0.5">
        <g id="Icons-PPT" transform="translate(-457.000000, -449.000000)" fill="#FFFFFF" fill-rule="nonzero">
            <g id="Information" transform="translate(457.000000, 449.000000)">
                <g id="Group">
                    <g id="a-link">
                        <path d="M10,18 C14.418278,18 18,14.418278 18,10 C18,5.581722 14.418278,2 10,2 C5.581722,2 2,5.581722 2,10 C2,14.418278 5.581722,18 10,18 Z M10,20 C4.4771525,20 0,15.5228475 0,10 C0,4.4771525 4.4771525,0 10,0 C15.5228475,0 20,4.4771525 20,10 C20,15.5228475 15.5228475,20 10,20 Z M11,15 L9,15 L9,8 L11,8 L11,15 Z M11,7 L9,7 L9,5 L11,5 L11,7 Z" id="a"></path>
                    </g>
                </g>
            </g>
        </g>
    </g>
</svg>