<svg xmlns="http://www.w3.org/2000/svg" xmlns:xlink="http://www.w3.org/1999/xlink" viewBox="0 0 252.192 48"><defs><style>.cls-1{fill:#fff;}.cls-2{fill:#6dcff6;}.cls-3{fill:url(#linear-gradient);}.cls-4{fill:url(#linear-gradient-10);}.cls-5{fill:url(#linear-gradient-11);}.cls-6{fill:url(#linear-gradient-12);}.cls-7{fill:url(#linear-gradient-15);}.cls-8{fill:url(#linear-gradient-17);}.cls-9{fill:url(#linear-gradient-18);}.cls-10{fill:#00b7f1;}</style><linearGradient id="linear-gradient" x1="-235.957" y1="22.408" x2="369.394" y2="22.408" gradientUnits="userSpaceOnUse"><stop offset="0" stop-color="#6dcff6"/><stop offset="0.999" stop-color="#00b7f1"/></linearGradient><linearGradient id="linear-gradient-10" x1="55.272" y1="25.067" x2="132.75" y2="25.067" gradientUnits="userSpaceOnUse"><stop offset="0" stop-color="#6dcff6"/><stop offset="1" stop-color="#00b7f1"/></linearGradient><linearGradient id="linear-gradient-11" x1="55.272" y1="24.785" x2="132.75" y2="24.785" xlink:href="#linear-gradient-10"/><linearGradient id="linear-gradient-12" x1="55.272" y1="24.926" x2="132.75" y2="24.926" xlink:href="#linear-gradient-10"/><linearGradient id="linear-gradient-15" x1="55.272" y1="23.675" x2="132.75" y2="23.675" xlink:href="#linear-gradient-10"/><linearGradient id="linear-gradient-17" x1="55.272" y1="16.857" x2="132.75" y2="16.857" xlink:href="#linear-gradient-10"/><linearGradient id="linear-gradient-18" x1="55.272" y1="22.441" x2="132.75" y2="22.441" xlink:href="#linear-gradient-10"/></defs><title>Asset 2</title><g id="Layer_2" data-name="Layer 2"><g id="Layer_1-2" data-name="Layer 1"><path class="cls-1" d="M146.76,25.52l.973.238a6.335,6.335,0,0,1-6.233,4.088,6.866,6.866,0,0,1,0-13.732,6.368,6.368,0,0,1,6.233,4.028l-.953.3a5.35,5.35,0,0,0-5.28-3.394,5.935,5.935,0,0,0,0,11.868,5.359,5.359,0,0,0,5.26-3.394"/><path class="cls-1" d="M159.363,24.766a5.1,5.1,0,1,1-5.1-5.06,4.972,4.972,0,0,1,5.1,5.06m-.953,0a4.147,4.147,0,1,0-8.294,0,4.147,4.147,0,1,0,8.294,0"/><path class="cls-1" d="M170.184,23.853v5.774h-.972V23.992c0-2.043-1.23-3.394-3.056-3.394-2.322,0-3.87,1.569-3.87,4.168v4.861h-.972v-9.7h.972v2.063a4.263,4.263,0,0,1,3.989-2.3,3.832,3.832,0,0,1,3.909,4.167"/><path class="cls-1" d="M177.872,29.072a3.264,3.264,0,0,1-2.123.775,2.726,2.726,0,0,1-2.9-2.957V20.758h-2.123v-.834h2.123v-3.2h.973v3.2h3.632v.834h-3.632v6.073a1.908,1.908,0,0,0,1.984,2.1,2.611,2.611,0,0,0,1.687-.654Z"/><path class="cls-1" d="M184.923,19.9l-.1.913a2.947,2.947,0,0,0-.575-.039c-2.679,0-4.128,2.222-4.128,4.8v4.048h-.972v-9.7h.972v2.719a4.564,4.564,0,0,1,4.128-2.8,2.841,2.841,0,0,1,.674.059"/><path class="cls-1" d="M195.171,24.766a5.1,5.1,0,1,1-5.1-5.06,4.972,4.972,0,0,1,5.1,5.06m-.953,0a4.148,4.148,0,1,0-8.295,0,4.148,4.148,0,1,0,8.295,0"/><rect class="cls-1" x="197.112" y="15.34" width="0.973" height="14.288"/><polygon class="cls-1" points="205.821 17.245 205.821 29.628 204.789 29.628 204.789 17.245 199.609 17.245 199.609 16.332 211 16.332 211 17.245 205.821 17.245"/><path class="cls-1" d="M219.9,24.766a5.1,5.1,0,1,1-5.1-5.06,4.972,4.972,0,0,1,5.1,5.06m-.953,0a4.147,4.147,0,1,0-8.294,0,4.147,4.147,0,1,0,8.294,0"/><polygon class="cls-1" points="231.137 29.688 230.185 29.688 227.327 21.472 224.45 29.688 223.497 29.688 220.203 19.905 221.195 19.905 224.013 28.219 226.931 19.925 227.704 19.925 230.622 28.239 233.439 19.905 234.432 19.905 231.137 29.688"/><path class="cls-1" d="M244.5,24.866h-8.792a4.01,4.01,0,0,0,3.949,4.127,3.789,3.789,0,0,0,3.771-2.481l.854.2a4.593,4.593,0,0,1-4.625,3.136,4.892,4.892,0,0,1-4.9-5.042,4.96,4.96,0,0,1,5.02-5.119,4.671,4.671,0,0,1,4.724,4.822Zm-8.752-.755h7.779a3.67,3.67,0,0,0-3.751-3.552,4.042,4.042,0,0,0-4.028,3.552"/><path class="cls-1" d="M252.192,19.9l-.1.913a2.952,2.952,0,0,0-.575-.039c-2.679,0-4.128,2.222-4.128,4.8v4.048h-.972v-9.7h.972v2.719a4.564,4.564,0,0,1,4.128-2.8,2.841,2.841,0,0,1,.674.059"/><path class="cls-2" d="M24,0,0,24,24,48,48,24Zm3.318,28.014h3.968l3.263-8.61-1.168-1.168-3.135,8.271H25.694l1.242,16.4L24,45.845l-3.06-3.06L22.1,26.507H17.524l-3.137-8.274L13.219,19.4l3.264,8.613h4l-1,13.314L2.155,24,24,2.155,45.845,24,28.329,41.516Z"/><path class="cls-2" d="M18.379,23.829h11.17l2.1-5.572H16.151ZM26.8,19.764h2.668l-.963,2.558H26.8Zm-4.3,0h2.79v2.558H22.5ZM21,22.322H19.4l-1.023-2.558H21Z"/><polygon class="cls-2" points="26.132 7.216 24.625 5.661 24.625 11.792 26.132 11.792 26.132 7.216"/><rect class="cls-2" x="21.44" y="8.068" width="1.507" height="3.724"/><polygon class="cls-2" points="29.156 12.853 18.647 12.853 17.14 14.36 30.663 14.36 29.156 12.853"/><polygon class="cls-2" points="33.138 15.458 14.634 15.458 13.133 16.959 13.133 16.965 34.645 16.965 33.138 15.458"/><path class="cls-3" d="M70.033,29.648h-3.01v-.9a3.892,3.892,0,0,1-2.9,1.185A3.59,3.59,0,0,1,60.457,26V20.2h2.991v5.156a1.666,1.666,0,0,0,1.618,1.862c1.186,0,1.957-.809,1.957-2.634V20.2h3.01Z"/><path class="cls-3" d="M87.318,23.74v5.908H84.327V24.38a1.6,1.6,0,0,0-1.581-1.75c-1.11,0-1.844.81-1.844,2.39v4.628h-3.01V24.38a1.605,1.605,0,0,0-1.6-1.75c-1.091,0-1.806.81-1.806,2.39v4.628H71.476V20.2h3.011v.866a3.573,3.573,0,0,1,2.784-1.148,3.5,3.5,0,0,1,3.086,1.6,4.071,4.071,0,0,1,3.349-1.6A3.6,3.6,0,0,1,87.318,23.74Z"/><path class="cls-3" d="M88.749,29.648V20.2H91.76v9.445Z"/><path class="cls-3" d="M102.836,23.853v5.795H99.844V24.493a1.666,1.666,0,0,0-1.618-1.863c-1.185,0-1.957.81-1.957,2.634v4.384h-3.01V20.2h3.01v.9a3.9,3.9,0,0,1,2.9-1.185A3.591,3.591,0,0,1,102.836,23.853Z"/><path class="cls-3" d="M114.207,29.648H111.2V28.9a4.257,4.257,0,0,1-2.935,1.034,4.707,4.707,0,0,1-4.61-5,4.718,4.718,0,0,1,4.61-5,4.253,4.253,0,0,1,2.935,1.035V20.2h3.01Zm-3.01-4.722a2.357,2.357,0,0,0-2.315-2.446,2.271,2.271,0,0,0-2.276,2.446,2.261,2.261,0,0,0,2.276,2.446A2.346,2.346,0,0,0,111.2,24.926Z"/><path class="cls-3" d="M122.739,29.234a5.128,5.128,0,0,1-2.577.7,3.4,3.4,0,0,1-3.763-3.762V22.593h-1.712V20.2H116.4V17.419h3.01V20.2h2.784v2.39h-2.784v3.274c0,.978.47,1.373,1.261,1.373a3.073,3.073,0,0,0,1.373-.376Z"/><path class="cls-3" d="M132.443,25.7H125.52a2.182,2.182,0,0,0,4.045.734l2.672.546a4.7,4.7,0,0,1-4.685,2.953,4.87,4.87,0,0,1-4.986-5,4.886,4.886,0,0,1,5-5,4.789,4.789,0,0,1,4.872,5Zm-6.867-1.844h3.9a1.887,1.887,0,0,0-1.9-1.486A2.07,2.07,0,0,0,125.576,23.853Z"/><polygon class="cls-3" points="92.162 16.857 90.191 14.885 88.217 16.857 90.191 18.829 90.736 18.284 92.162 16.857"/><path class="cls-3" d="M56.03,29.648V15.233h3.01V29.648Z"/><path class="cls-4" d="M70.033,29.648h-3.01v-.9a3.892,3.892,0,0,1-2.9,1.185A3.59,3.59,0,0,1,60.457,26V20.2h2.991v5.156a1.666,1.666,0,0,0,1.618,1.862c1.186,0,1.957-.809,1.957-2.634V20.2h3.01Z"/><path class="cls-5" d="M87.318,23.74v5.908H84.327V24.38a1.6,1.6,0,0,0-1.581-1.75c-1.11,0-1.844.81-1.844,2.39v4.628h-3.01V24.38a1.605,1.605,0,0,0-1.6-1.75c-1.091,0-1.806.81-1.806,2.39v4.628H71.476V20.2h3.011v.866a3.573,3.573,0,0,1,2.784-1.148,3.5,3.5,0,0,1,3.086,1.6,4.071,4.071,0,0,1,3.349-1.6A3.6,3.6,0,0,1,87.318,23.74Z"/><path class="cls-6" d="M88.749,29.648V20.2H91.76v9.445Z"/><path class="cls-5" d="M102.836,23.853v5.795H99.844V24.493a1.666,1.666,0,0,0-1.618-1.863c-1.185,0-1.957.81-1.957,2.634v4.384h-3.01V20.2h3.01v.9a3.9,3.9,0,0,1,2.9-1.185A3.591,3.591,0,0,1,102.836,23.853Z"/><path class="cls-6" d="M114.207,29.648H111.2V28.9a4.257,4.257,0,0,1-2.935,1.034,4.707,4.707,0,0,1-4.61-5,4.718,4.718,0,0,1,4.61-5,4.253,4.253,0,0,1,2.935,1.035V20.2h3.01Zm-3.01-4.722a2.357,2.357,0,0,0-2.315-2.446,2.271,2.271,0,0,0-2.276,2.446,2.261,2.261,0,0,0,2.276,2.446A2.346,2.346,0,0,0,111.2,24.926Z"/><path class="cls-7" d="M122.739,29.234a5.128,5.128,0,0,1-2.577.7,3.4,3.4,0,0,1-3.763-3.762V22.593h-1.712V20.2H116.4V17.419h3.01V20.2h2.784v2.39h-2.784v3.274c0,.978.47,1.373,1.261,1.373a3.073,3.073,0,0,0,1.373-.376Z"/><path class="cls-6" d="M132.443,25.7H125.52a2.182,2.182,0,0,0,4.045.734l2.672.546a4.7,4.7,0,0,1-4.685,2.953,4.87,4.87,0,0,1-4.986-5,4.886,4.886,0,0,1,5-5,4.789,4.789,0,0,1,4.872,5Zm-6.867-1.844h3.9a1.887,1.887,0,0,0-1.9-1.486A2.07,2.07,0,0,0,125.576,23.853Z"/><polygon class="cls-8" points="92.162 16.857 90.191 14.885 88.217 16.857 90.191 18.829 90.736 18.284 92.162 16.857"/><path class="cls-9" d="M56.03,29.648V15.233h3.01V29.648Z"/><polygon class="cls-10" points="130.17 18.674 130.588 18.674 130.588 19.673 130.82 19.673 130.82 18.674 131.238 18.674 131.238 18.451 130.17 18.451 130.17 18.674"/><polygon class="cls-10" points="132.684 18.451 132.231 19.319 131.778 18.451 131.587 18.451 131.587 19.673 131.814 19.673 131.814 19.007 132.16 19.673 132.3 19.673 132.646 19.007 132.646 19.673 132.874 19.673 132.874 18.451 132.684 18.451"/></g></g></svg>
