<svg xmlns="http://www.w3.org/2000/svg" viewBox="0 0 14 13.306"><defs><style>.cls-1{fill:#1f3138;}</style></defs><title>Asset 6</title><g id="Layer_2" data-name="Layer 2"><g id="Layer_1-2" data-name="Layer 1"><g id="shop"><path class="cls-1" d="M13.074,1.736H.926V.579A.546.546,0,0,1,1.5,0H12.5a.546.546,0,0,1,.578.579ZM1.215,6.364A1.253,1.253,0,0,0,2.43,5.207a.241.241,0,0,1,.463,0A1.251,1.251,0,0,0,4.107,6.364,1.252,1.252,0,0,0,5.322,5.207a.241.241,0,0,1,.463,0,1.216,1.216,0,0,0,2.43,0,.241.241,0,0,1,.463,0,1.216,1.216,0,0,0,2.429,0,.241.241,0,0,1,.463,0,1.253,1.253,0,0,0,1.215,1.157A1.187,1.187,0,0,0,14,5.149a4.471,4.471,0,0,0-.058-.521L12.5,2.314H1.5L.058,4.628A4.471,4.471,0,0,0,0,5.149,1.187,1.187,0,0,0,1.215,6.364Zm12.438,6.363v.579H.347v-.579a.547.547,0,0,1,.579-.578V6.942H13.074v5.207A.547.547,0,0,1,13.653,12.727ZM4.975,8.1H2.661v4.05H4.975Zm6.364.579H6.711v2.314h4.628Z"/></g></g></g></svg>