<?xml version="1.0" encoding="UTF-8"?>
<svg width="15px" height="13px" viewBox="0 0 15 13" version="1.1" xmlns="http://www.w3.org/2000/svg" xmlns:xlink="http://www.w3.org/1999/xlink">
    <!-- Generator: Sketch 52.2 (67145) - http://www.bohemiancoding.com/sketch -->
    <title>Group 2</title>
    <desc>Created with Sketch.</desc>
    <g id="Page-1" stroke="none" stroke-width="1" fill="none" fill-rule="evenodd">
        <g id="Stale-stock01" transform="translate(-1741.000000, -251.000000)">
            <g id="Group-4">
                <g id="Group-2" transform="translate(1742.000000, 251.000000)">
                    <path d="M7.30232262,1.17956832 C7.25890884,1.10244051 7.19580017,1.03821861 7.1194432,0.993462947 C6.88120849,0.853824711 6.57488195,0.933752942 6.43524372,1.17198765 L0.499749863,11.2984449 C0.454804612,11.3751253 0.431111954,11.4624006 0.431111954,11.5512823 C0.431111954,11.8274247 0.654969579,12.0512823 0.931111954,12.0512823 L12.5665961,12.0512823 C12.6525136,12.0512823 12.7369815,12.0291428 12.8118528,11.9869991 C13.0524926,11.8515476 13.1377645,11.5466653 13.0023129,11.3060256 L7.30232262,1.17956832 Z" id="Rectangle-Copy" stroke="#FFFFFF"></path>
                    <g id="Group-Copy-5" transform="translate(6.000000, 4.000000)" fill="#FFFFFF">
                        <path d="M0.232734153,3.22433036 L0.0510879849,1.42006138 C0.017029158,1.06849713 0,0.816127998 0,0.662946429 C0,0.454519047 0.082307597,0.291923017 0.24692526,0.17515346 C0.411542923,0.0583839028 0.628191656,0 0.896877956,0 C1.22232897,0 1.43992377,0.0747062842 1.54966887,0.224121094 C1.65941398,0.373535903 1.71428571,0.588865781 1.71428571,0.870117187 C1.71428571,1.03585462 1.70104081,1.20410071 1.67455061,1.37486049 L1.43046358,3.23186384 C1.40397338,3.45284709 1.34720952,3.62234874 1.26017029,3.74037388 C1.17313107,3.85839903 1.02932929,3.91741071 0.828760643,3.91741071 C0.624407682,3.91741071 0.482498032,3.86028238 0.403027436,3.746024 C0.32355684,3.63176561 0.26679298,3.45786947 0.232734153,3.22433036 Z M0.8628193,6 C0.63197614,6 0.430464437,5.92451103 0.258278146,5.77353082 C0.0860918543,5.62255061 0,5.41137259 0,5.13999044 C0,4.90300885 0.082307597,4.7013864 0.24692526,4.53511706 C0.411542923,4.36884771 0.613054626,4.28571429 0.851466414,4.28571429 C1.0898782,4.28571429 1.29328203,4.36884771 1.46168401,4.53511706 C1.63008599,4.7013864 1.71428571,4.90300885 1.71428571,5.13999044 C1.71428571,5.40755031 1.62913992,5.61777277 1.45884579,5.77066412 C1.28855166,5.92355547 1.08987815,6 0.8628193,6 Z" id="!"></path>
                    </g>
                </g>
            </g>
        </g>
    </g>
</svg>